<mxfile host="app.diagrams.net" modified="2023-12-01T16:39:02.967Z" agent="Mozilla/5.0 (Windows NT 10.0; Win64; x64) AppleWebKit/537.36 (KHTML, like Gecko) Chrome/119.0.0.0 Safari/537.36" etag="3uvg7itrzG5MkhVloPk5" version="22.1.5" type="device">
  <diagram name="Страница — 1" id="yw_XHMU67NB0tQXotg_f">
    <mxGraphModel dx="1405" dy="811" grid="1" gridSize="10" guides="1" tooltips="1" connect="1" arrows="1" fold="1" page="1" pageScale="1" pageWidth="827" pageHeight="1169" math="0" shadow="0">
      <root>
        <mxCell id="0" />
        <mxCell id="1" parent="0" />
        <mxCell id="Tpui953nt_J6x1nIX9Mz-4" value="" style="html=1;shadow=0;dashed=0;align=center;verticalAlign=middle;shape=mxgraph.arrows2.arrow;dy=0.6;dx=40;notch=0;fillColor=#008a00;fontColor=#ffffff;strokeColor=#005700;" vertex="1" parent="1">
          <mxGeometry x="120" y="216" width="1920" height="90" as="geometry" />
        </mxCell>
        <mxCell id="Tpui953nt_J6x1nIX9Mz-21" style="edgeStyle=orthogonalEdgeStyle;rounded=0;orthogonalLoop=1;jettySize=auto;html=1;entryX=-0.001;entryY=0.683;entryDx=0;entryDy=0;strokeWidth=2;entryPerimeter=0;" edge="1" parent="1" source="Tpui953nt_J6x1nIX9Mz-10" target="Tpui953nt_J6x1nIX9Mz-20">
          <mxGeometry relative="1" as="geometry" />
        </mxCell>
        <mxCell id="Tpui953nt_J6x1nIX9Mz-10" value="&lt;p style=&quot;margin:0px;margin-top:4px;text-align:center;&quot;&gt;&lt;b&gt;src/config.py&lt;/b&gt;&lt;/p&gt;&lt;hr size=&quot;1&quot;&gt;&lt;div style=&quot;height:2px;&quot;&gt;&lt;/div&gt;" style="verticalAlign=top;align=left;overflow=fill;fontSize=12;fontFamily=Helvetica;html=1;whiteSpace=wrap;opacity=80;" vertex="1" parent="1">
          <mxGeometry x="220" y="191.38" width="200" height="137.25" as="geometry" />
        </mxCell>
        <mxCell id="Tpui953nt_J6x1nIX9Mz-15" style="edgeStyle=orthogonalEdgeStyle;rounded=0;orthogonalLoop=1;jettySize=auto;html=1;entryX=0.006;entryY=0.313;entryDx=0;entryDy=0;strokeWidth=2;entryPerimeter=0;" edge="1" parent="1" source="Tpui953nt_J6x1nIX9Mz-10" target="Tpui953nt_J6x1nIX9Mz-19">
          <mxGeometry relative="1" as="geometry">
            <mxPoint x="449.9999999999998" y="260" as="targetPoint" />
          </mxGeometry>
        </mxCell>
        <mxCell id="Tpui953nt_J6x1nIX9Mz-18" value="&lt;p style=&quot;margin:0px;margin-top:4px;text-align:center;&quot;&gt;&lt;b&gt;Settings(BaseSettings)&lt;/b&gt;&lt;/p&gt;&lt;hr size=&quot;1&quot;&gt;&lt;p style=&quot;margin:0px;margin-left:4px;&quot;&gt;+ DB_NAME, DB_PORT, ...&lt;/p&gt;&lt;hr size=&quot;1&quot;&gt;&lt;p style=&quot;margin:0px;margin-left:4px;&quot;&gt;+&amp;nbsp;DB_URL&lt;span style=&quot;background-color: initial;&quot;&gt;(): str&lt;/span&gt;&lt;/p&gt;" style="verticalAlign=top;align=left;overflow=fill;fontSize=12;fontFamily=Helvetica;html=1;whiteSpace=wrap;" vertex="1" parent="1">
          <mxGeometry x="240" y="230" width="160" height="80" as="geometry" />
        </mxCell>
        <mxCell id="Tpui953nt_J6x1nIX9Mz-19" value="settings&lt;br&gt;(для тестов)" style="html=1;whiteSpace=wrap;" vertex="1" parent="1">
          <mxGeometry x="490" y="425" width="110" height="50" as="geometry" />
        </mxCell>
        <mxCell id="Tpui953nt_J6x1nIX9Mz-20" value="settings" style="html=1;whiteSpace=wrap;" vertex="1" parent="1">
          <mxGeometry x="490" y="60" width="110" height="50" as="geometry" />
        </mxCell>
        <mxCell id="Tpui953nt_J6x1nIX9Mz-30" style="edgeStyle=orthogonalEdgeStyle;rounded=0;orthogonalLoop=1;jettySize=auto;html=1;entryX=0;entryY=0.25;entryDx=0;entryDy=0;" edge="1" parent="1" source="Tpui953nt_J6x1nIX9Mz-24" target="Tpui953nt_J6x1nIX9Mz-20">
          <mxGeometry relative="1" as="geometry" />
        </mxCell>
        <mxCell id="Tpui953nt_J6x1nIX9Mz-24" value="&lt;pre style=&quot;background-color: rgb(43, 43, 43);&quot;&gt;&lt;div style=&quot;text-align: center;&quot;&gt;&lt;font face=&quot;JetBrains Mono, monospace&quot; color=&quot;#a9b7c6&quot;&gt;.env&lt;/font&gt;&lt;/div&gt;&lt;font face=&quot;JetBrains Mono, monospace&quot; color=&quot;#a9b7c6&quot;&gt;MODE=DEV&lt;br&gt;&lt;br&gt;DB_HOST=localhost&lt;br&gt;DB_PORT=5432&lt;br&gt;DB_USER=semyon&lt;br&gt;DB_PASS=spotting&lt;br&gt;DB_NAME=weather_db&lt;/font&gt;&lt;/pre&gt;" style="text;whiteSpace=wrap;html=1;" vertex="1" parent="1">
          <mxGeometry x="264" y="3" width="120" height="139" as="geometry" />
        </mxCell>
        <mxCell id="Tpui953nt_J6x1nIX9Mz-28" style="edgeStyle=orthogonalEdgeStyle;rounded=0;orthogonalLoop=1;jettySize=auto;html=1;entryX=0;entryY=0.75;entryDx=0;entryDy=0;" edge="1" parent="1" source="Tpui953nt_J6x1nIX9Mz-27" target="Tpui953nt_J6x1nIX9Mz-19">
          <mxGeometry relative="1" as="geometry" />
        </mxCell>
        <mxCell id="Tpui953nt_J6x1nIX9Mz-27" value="&lt;pre style=&quot;background-color: rgb(43, 43, 43);&quot;&gt;&lt;div style=&quot;text-align: center;&quot;&gt;&lt;font face=&quot;JetBrains Mono, monospace&quot; color=&quot;#a9b7c6&quot;&gt;.test.env&lt;/font&gt;&lt;/div&gt;&lt;font face=&quot;JetBrains Mono, monospace&quot; color=&quot;#a9b7c6&quot;&gt;MODE=TEST&lt;br&gt;&lt;br&gt;DB_HOST=localhost&lt;br&gt;DB_PORT=5432&lt;br&gt;DB_USER=semyon&lt;br&gt;DB_PASS=spotting&lt;br&gt;DB_NAME=weather_test_db&lt;/font&gt;&lt;/pre&gt;" style="text;whiteSpace=wrap;html=1;" vertex="1" parent="1">
          <mxGeometry x="246" y="394" width="154" height="137" as="geometry" />
        </mxCell>
        <mxCell id="Tpui953nt_J6x1nIX9Mz-33" value="&lt;p style=&quot;margin:0px;margin-top:4px;text-align:center;&quot;&gt;&lt;b&gt;src/config.py&lt;/b&gt;&lt;/p&gt;&lt;hr size=&quot;1&quot;&gt;&lt;div style=&quot;height:2px;&quot;&gt;&lt;/div&gt;" style="verticalAlign=top;align=left;overflow=fill;fontSize=12;fontFamily=Helvetica;html=1;whiteSpace=wrap;glass=0;opacity=80;" vertex="1" parent="1">
          <mxGeometry x="700" y="20" width="480" height="280" as="geometry" />
        </mxCell>
        <mxCell id="Tpui953nt_J6x1nIX9Mz-31" value="&lt;pre style=&quot;background-color: rgb(43, 43, 43); font-family: &amp;quot;JetBrains Mono&amp;quot;, monospace;&quot;&gt;&lt;font color=&quot;#ffffff&quot; style=&quot;font-size: 15px;&quot;&gt;python src/main.py&lt;/font&gt;&lt;/pre&gt;" style="text;whiteSpace=wrap;html=1;" vertex="1" parent="1">
          <mxGeometry y="48.75" width="150" height="47.5" as="geometry" />
        </mxCell>
        <mxCell id="Tpui953nt_J6x1nIX9Mz-32" value="&lt;pre style=&quot;background-color: rgb(43, 43, 43); font-family: &amp;quot;JetBrains Mono&amp;quot;, monospace;&quot;&gt;&lt;font color=&quot;#ffffff&quot;&gt;&lt;span style=&quot;font-size: 15px;&quot;&gt;pytest tests/unittests&lt;/span&gt;&lt;/font&gt;&lt;/pre&gt;" style="text;whiteSpace=wrap;html=1;" vertex="1" parent="1">
          <mxGeometry y="436.87" width="180" height="51.25" as="geometry" />
        </mxCell>
        <mxCell id="Tpui953nt_J6x1nIX9Mz-35" value="&lt;p style=&quot;margin:0px;margin-top:4px;text-align:center;&quot;&gt;&lt;b&gt;Base(&lt;/b&gt;DeclarativeBase)&lt;/p&gt;&lt;hr size=&quot;1&quot;&gt;&lt;div style=&quot;height:2px;&quot;&gt;&lt;/div&gt;" style="verticalAlign=top;align=left;overflow=fill;fontSize=12;fontFamily=Helvetica;html=1;whiteSpace=wrap;" vertex="1" parent="1">
          <mxGeometry x="1020" y="231" width="150" height="60" as="geometry" />
        </mxCell>
        <mxCell id="Tpui953nt_J6x1nIX9Mz-46" style="edgeStyle=orthogonalEdgeStyle;rounded=0;orthogonalLoop=1;jettySize=auto;html=1;entryX=0;entryY=0.5;entryDx=0;entryDy=0;" edge="1" parent="1" source="Tpui953nt_J6x1nIX9Mz-37" target="Tpui953nt_J6x1nIX9Mz-45">
          <mxGeometry relative="1" as="geometry" />
        </mxCell>
        <mxCell id="Tpui953nt_J6x1nIX9Mz-37" value="async_engine" style="html=1;whiteSpace=wrap;" vertex="1" parent="1">
          <mxGeometry x="720" y="60" width="110" height="50" as="geometry" />
        </mxCell>
        <mxCell id="Tpui953nt_J6x1nIX9Mz-39" style="edgeStyle=orthogonalEdgeStyle;rounded=0;orthogonalLoop=1;jettySize=auto;html=1;entryX=0;entryY=0.5;entryDx=0;entryDy=0;" edge="1" parent="1" source="Tpui953nt_J6x1nIX9Mz-20" target="Tpui953nt_J6x1nIX9Mz-37">
          <mxGeometry relative="1" as="geometry" />
        </mxCell>
        <mxCell id="Tpui953nt_J6x1nIX9Mz-40" value="DB_URL" style="edgeLabel;html=1;align=center;verticalAlign=middle;resizable=0;points=[];" vertex="1" connectable="0" parent="Tpui953nt_J6x1nIX9Mz-39">
          <mxGeometry x="-0.0809" y="1" relative="1" as="geometry">
            <mxPoint as="offset" />
          </mxGeometry>
        </mxCell>
        <mxCell id="Tpui953nt_J6x1nIX9Mz-42" value="&lt;p style=&quot;margin:0px;margin-top:4px;text-align:center;&quot;&gt;&lt;b&gt;tests/conftest.py&lt;/b&gt;&lt;/p&gt;&lt;hr size=&quot;1&quot;&gt;&lt;div style=&quot;height:2px;&quot;&gt;&lt;/div&gt;" style="verticalAlign=top;align=left;overflow=fill;fontSize=12;fontFamily=Helvetica;html=1;whiteSpace=wrap;glass=0;opacity=80;" vertex="1" parent="1">
          <mxGeometry x="700" y="380.5" width="480" height="129.5" as="geometry" />
        </mxCell>
        <mxCell id="Tpui953nt_J6x1nIX9Mz-43" value="test_async_session_maker" style="html=1;whiteSpace=wrap;" vertex="1" parent="1">
          <mxGeometry x="850" y="423.75" width="160" height="52.5" as="geometry" />
        </mxCell>
        <mxCell id="Tpui953nt_J6x1nIX9Mz-48" style="edgeStyle=orthogonalEdgeStyle;rounded=0;orthogonalLoop=1;jettySize=auto;html=1;entryX=0;entryY=0.5;entryDx=0;entryDy=0;" edge="1" parent="1" source="Tpui953nt_J6x1nIX9Mz-44" target="Tpui953nt_J6x1nIX9Mz-43">
          <mxGeometry relative="1" as="geometry" />
        </mxCell>
        <mxCell id="Tpui953nt_J6x1nIX9Mz-44" value="test_async_engine" style="html=1;whiteSpace=wrap;" vertex="1" parent="1">
          <mxGeometry x="720" y="425" width="110" height="50" as="geometry" />
        </mxCell>
        <mxCell id="Tpui953nt_J6x1nIX9Mz-45" value="async_session_maker" style="html=1;whiteSpace=wrap;" vertex="1" parent="1">
          <mxGeometry x="850" y="60" width="160" height="50" as="geometry" />
        </mxCell>
        <mxCell id="Tpui953nt_J6x1nIX9Mz-47" style="edgeStyle=orthogonalEdgeStyle;rounded=0;orthogonalLoop=1;jettySize=auto;html=1;entryX=0;entryY=0.5;entryDx=0;entryDy=0;" edge="1" parent="1" source="Tpui953nt_J6x1nIX9Mz-19" target="Tpui953nt_J6x1nIX9Mz-44">
          <mxGeometry relative="1" as="geometry" />
        </mxCell>
        <mxCell id="Tpui953nt_J6x1nIX9Mz-50" value="DB_URL&lt;br&gt;(для тестов)" style="edgeLabel;html=1;align=center;verticalAlign=middle;resizable=0;points=[];" vertex="1" connectable="0" parent="Tpui953nt_J6x1nIX9Mz-47">
          <mxGeometry x="-0.1434" y="1" relative="1" as="geometry">
            <mxPoint as="offset" />
          </mxGeometry>
        </mxCell>
        <mxCell id="Tpui953nt_J6x1nIX9Mz-51" value="&lt;p style=&quot;margin:0px;margin-top:4px;text-align:center;&quot;&gt;&lt;b&gt;WeatherORMModel(Base)&lt;/b&gt;&lt;/p&gt;&lt;hr size=&quot;1&quot;&gt;&lt;div style=&quot;height:2px;&quot;&gt;&lt;/div&gt;" style="verticalAlign=top;align=left;overflow=fill;fontSize=12;fontFamily=Helvetica;html=1;whiteSpace=wrap;" vertex="1" parent="1">
          <mxGeometry x="1320" y="82" width="150" height="60" as="geometry" />
        </mxCell>
        <mxCell id="Tpui953nt_J6x1nIX9Mz-52" value="" style="shape=datastore;whiteSpace=wrap;html=1;" vertex="1" parent="1">
          <mxGeometry x="1640" y="195" width="76" height="130" as="geometry" />
        </mxCell>
        <mxCell id="Tpui953nt_J6x1nIX9Mz-54" value="&lt;p style=&quot;margin:0px;margin-top:4px;text-align:center;&quot;&gt;&lt;b&gt;weather_db&lt;/b&gt;&lt;/p&gt;&lt;hr size=&quot;1&quot;&gt;&lt;div style=&quot;height:2px;&quot;&gt;&lt;/div&gt;" style="verticalAlign=top;align=left;overflow=fill;fontSize=12;fontFamily=Helvetica;html=1;whiteSpace=wrap;" vertex="1" parent="1">
          <mxGeometry x="1550" y="232.5" width="100" height="75" as="geometry" />
        </mxCell>
        <mxCell id="Tpui953nt_J6x1nIX9Mz-55" value="&lt;p style=&quot;margin:0px;margin-top:4px;text-align:center;&quot;&gt;&lt;b&gt;weather_test_db&lt;/b&gt;&lt;/p&gt;&lt;hr size=&quot;1&quot;&gt;&lt;div style=&quot;height:2px;&quot;&gt;&lt;/div&gt;" style="verticalAlign=top;align=left;overflow=fill;fontSize=12;fontFamily=Helvetica;html=1;whiteSpace=wrap;" vertex="1" parent="1">
          <mxGeometry x="1710" y="232.5" width="100" height="75" as="geometry" />
        </mxCell>
      </root>
    </mxGraphModel>
  </diagram>
</mxfile>
